<svg width="327" height="155" viewBox="0 0 327 155" fill="none" xmlns="http://www.w3.org/2000/svg">
<g clip-path="url(#clip0_44_282)">
<path d="M56.8889 49.8889V35.6667H71.1111V49.8889H56.8889ZM42.6667 106.778H56.8889V121H42.6667H28.4444H14.2222V106.778H28.4444H42.6667ZM56.8889 106.778V92.5556H71.1111V106.778H56.8889ZM14.2222 106.778H0V92.5556V78.3333V64.1111V49.8889V35.6667H14.2222V49.8889V64.1111V78.3333V92.5556V106.778ZM56.8889 35.6667H42.6667H28.4444H14.2222V21.4444H28.4444H42.6667H56.8889V35.6667ZM128.042 106.778H142.264V121H128.042H113.819H99.5972V106.778H113.819H128.042ZM142.264 106.778V92.5556V78.3333V64.1111H156.486V78.3333V92.5556V106.778H142.264ZM99.5972 106.778H85.375V92.5556V78.3333V64.1111H99.5972V78.3333V92.5556V106.778ZM142.264 64.1111H128.042H113.819H99.5972V49.8889H113.819H128.042H142.264V64.1111ZM227.639 106.778H241.861V121H227.639H213.417H199.194H184.972H170.75V106.778H184.972V92.5556H199.194V106.778H213.417H227.639ZM199.194 92.5556V78.3333H213.417V92.5556H199.194ZM213.417 78.3333V64.1111H199.194H184.972H170.75V49.8889H184.972H199.194H213.417H227.639H241.861V64.1111H227.639V78.3333H213.417ZM298.792 121H313.014V135.222H298.792H284.569H270.347H256.125V121H270.347H284.569H298.792ZM313.014 121V106.778H298.792H284.569H270.347V92.5556H284.569H298.792H313.014V78.3333V64.1111V49.8889H327.236V64.1111V78.3333V92.5556V106.778V121H313.014ZM270.347 92.5556H256.125V78.3333V64.1111V49.8889H270.347V64.1111V78.3333V92.5556Z" fill="#FBFBFF"/>
</g>
<defs>
<clipPath id="clip0_44_282">
<rect width="327" height="155" fill="white"/>
</clipPath>
</defs>
</svg>
