<svg width="414" height="180" viewBox="0 0 414 180" fill="none" xmlns="http://www.w3.org/2000/svg">
<path d="M92.3977 68.8889V54.6667H106.62V68.8889H92.3977ZM78.1755 125.778H92.3977V140H78.1755H63.9532H49.731V125.778H63.9532H78.1755ZM92.3977 125.778V111.556H106.62V125.778H92.3977ZM49.731 125.778H35.5088V111.556V97.3333V83.1111V68.8889V54.6667H49.731V68.8889V83.1111V97.3333V111.556V125.778ZM92.3977 54.6667H78.1755H63.9532H49.731V40.4444H63.9532H78.1755H92.3977V54.6667ZM163.55 125.778H177.773V140H163.55H149.328H135.106V125.778H149.328H163.55ZM177.773 125.778V111.556V97.3333V83.1111H191.995V97.3333V111.556V125.778H177.773ZM135.106 125.778H120.884V111.556V97.3333V83.1111H135.106V97.3333V111.556V125.778ZM177.773 83.1111H163.55H149.328H135.106V68.8889H149.328H163.55H177.773V83.1111ZM263.148 125.778H277.37V140H263.148H248.925H234.703H220.481H206.259V125.778H220.481V111.556H234.703V125.778H248.925H263.148ZM234.703 111.556V97.3333H248.925V111.556H234.703ZM248.925 97.3333V83.1111H234.703H220.481H206.259V68.8889H220.481H234.703H248.925H263.148H277.37V83.1111H263.148V97.3333H248.925ZM334.3 140H348.523V154.222H334.3H320.078H305.856H291.634V140H305.856H320.078H334.3ZM348.523 140V125.778H334.3H320.078H305.856V111.556H320.078H334.3H348.523V97.3333V83.1111V68.8889H362.745V83.1111V97.3333V111.556V125.778V140H348.523ZM305.856 111.556H291.634V97.3333V83.1111V68.8889H305.856V83.1111V97.3333V111.556Z" fill="#FBFBFF"/>
</svg>
