<svg width="102" height="44" viewBox="0 0 102 44" fill="none" xmlns="http://www.w3.org/2000/svg">
<path d="M22.9857 17.2618V13.7852H26.4623V17.2618H22.9857ZM19.5092 31.1679H22.9857V34.6444H19.5092H16.0327H12.5561V31.1679H16.0327H19.5092ZM22.9857 31.1679V27.6914H26.4623V31.1679H22.9857ZM12.5561 31.1679H9.07959V27.6914V24.2148V20.7383V17.2618V13.7852H12.5561V17.2618V20.7383V24.2148V27.6914V31.1679ZM22.9857 13.7852H19.5092H16.0327H12.5561V10.3087H16.0327H19.5092H22.9857V13.7852ZM40.3786 31.1679H43.8551V34.6444H40.3786H36.9021H33.4255V31.1679H36.9021H40.3786ZM43.8551 31.1679V27.6914V24.2148V20.7383H47.3317V24.2148V27.6914V31.1679H43.8551ZM33.4255 31.1679H29.949V27.6914V24.2148V20.7383H33.4255V24.2148V27.6914V31.1679ZM43.8551 20.7383H40.3786H36.9021H33.4255V17.2618H36.9021H40.3786H43.8551V20.7383ZM64.7246 31.1679H68.2011V34.6444H64.7246H61.248H57.7715H54.2949H50.8184V31.1679H54.2949V27.6914H57.7715V31.1679H61.248H64.7246ZM57.7715 27.6914V24.2148H61.248V27.6914H57.7715ZM61.248 24.2148V20.7383H57.7715H54.2949H50.8184V17.2618H54.2949H57.7715H61.248H64.7246H68.2011V20.7383H64.7246V24.2148H61.248ZM82.1174 34.6444H85.594V38.121H82.1174H78.6409H75.1644H71.6878V34.6444H75.1644H78.6409H82.1174ZM85.594 34.6444V31.1679H82.1174H78.6409H75.1644V27.6914H78.6409H82.1174H85.594V24.2148V20.7383V17.2618H89.0705V20.7383V24.2148V27.6914V31.1679V34.6444H85.594ZM75.1644 27.6914H71.6878V24.2148V20.7383V17.2618H75.1644V20.7383V24.2148V27.6914Z" fill="#C1D3E6"/>
</svg>
